# Blender v2.93.10 OBJ File: 'spaceship.blend'
# www.blender.org
mtllib spaceship.mtl
o Cube
v 0.025870 1.000000 -1.000000
v 0.025870 -1.000000 -1.000000
v 0.025870 1.000000 1.000000
v 0.025870 -1.000000 1.000000
v -1.000000 1.000000 -1.000000
v -1.000000 -1.000000 -1.000000
v -1.000000 1.000000 1.000000
v -1.000000 -1.000000 1.000000
v 5.826945 -0.323738 0.000000
v 5.826945 -0.555621 0.000000
v -2.410335 -0.470235 0.000000
v -2.410335 0.106261 0.000000
v 0.025870 1.175153 0.000000
v -1.000000 1.175153 0.000000
v -1.000000 -1.000000 0.000000
v 0.025870 -1.000000 0.000000
v -1.000000 0.000000 -2.200000
v 0.025870 0.000000 -2.200000
v -1.000000 0.000000 2.200000
v 0.025870 0.000000 2.200000
v 5.826945 -0.439680 0.000000
v -2.410335 -0.181987 0.000000
v -1.000000 0.500000 -2.200000
v 0.025870 0.500000 -2.200000
v -1.000000 0.500000 2.200000
v 0.025870 0.500000 2.200000
v -1.000000 0.500000 -3.000000
v -1.000000 0.000000 -3.000000
v 0.025870 0.500000 -3.000000
v 0.025870 0.000000 -3.000000
v 0.025870 0.500000 3.000000
v 0.025870 0.000000 3.000000
v -1.000000 0.000000 3.000000
v -1.000000 0.500000 3.000000
v -1.000000 2.500000 -3.200000
v -1.000000 -1.500000 -3.200000
v 0.025870 2.500000 -3.200000
v 0.025870 -1.500000 -3.200000
v 0.025870 2.500000 3.200000
v 0.025870 -1.500000 3.200000
v -1.000000 -1.500000 3.200000
v -1.000000 2.500000 3.200000
v -1.000000 0.500000 -3.500000
v -1.000000 0.000000 -3.500000
v 0.025870 0.500000 -3.500000
v 0.025870 0.000000 -3.500000
v 0.025870 0.500000 3.500000
v 0.025870 0.000000 3.500000
v -1.000000 0.000000 3.500000
v -1.000000 0.500000 3.500000
v -0.487065 0.500000 -3.000000
v -0.487065 2.500000 -3.200000
v -0.487065 0.500000 -3.500000
v -0.487065 0.500000 3.000000
v -0.487065 2.500000 3.200000
v -0.487065 0.500000 3.500000
v 0.025870 0.250000 3.000000
v 1.525870 0.250000 3.200000
v 0.025870 0.250000 3.500000
v -0.487065 0.000000 3.000000
v -0.487065 -1.500000 3.200000
v -0.487065 0.000000 3.500000
v -1.000000 0.250000 3.000000
v -2.500000 0.250000 3.200000
v -1.000000 0.250000 3.500000
v -0.487065 0.000000 -3.000000
v -0.487065 -1.500000 -3.200000
v -0.487065 0.000000 -3.500000
v -1.000000 0.250000 -3.000000
v -2.500000 0.250000 -3.200000
v -1.000000 0.250000 -3.500000
v 0.025870 0.250000 -3.000000
v 1.525870 0.250000 -3.200000
v 0.025870 0.250000 -3.500000
vt 0.875000 0.625000
vt 0.875000 0.750000
vt 0.875000 0.625000
vt 0.625000 0.750000
vt 0.562500 1.000000
vt 0.562500 0.750000
vt 0.625000 0.125000
vt 0.625000 0.250000
vt 0.562500 0.250000
vt 0.375000 0.625000
vt 0.375000 0.750000
vt 0.375000 0.625000
vt 0.625000 0.625000
vt 0.562500 0.500000
vt 0.625000 0.500000
vt 0.562500 0.000000
vt 0.625000 0.000000
vt 0.625000 0.625000
vt 0.125000 0.750000
vt 0.125000 0.625000
vt 0.125000 0.625000
vt 0.125000 0.500000
vt 0.875000 0.500000
vt 0.375000 0.500000
vt 0.500000 0.250000
vt 0.375000 0.250000
vt 0.500000 0.750000
vt 0.375000 1.000000
vt 0.500000 0.625000
vt 0.500000 0.125000
vt 0.375000 0.125000
vt 0.375000 0.000000
vt 0.500000 0.500000
vt 0.500000 0.500000
vt 0.531250 0.500000
vt 0.500000 0.750000
vt 0.500000 0.875000
vt 0.500000 0.250000
vt 0.500000 0.375000
vt 0.500000 0.375000
vt 0.562500 0.250000
vt 0.531250 0.250000
vt 0.562500 0.500000
vt 0.562500 0.375000
vt 0.500000 0.000000
vt 0.531250 0.000000
vt 0.531250 0.000000
vt 0.562500 0.750000
vt 0.531250 0.750000
vt 0.562500 1.000000
vt 0.562500 0.875000
vt 0.500000 0.000000
vt 0.500000 0.250000
vt 0.500000 0.375000
vt 0.531250 0.250000
vt 0.562500 0.375000
vt 0.531250 0.500000
vt 0.562500 1.000000
vt 0.562500 0.875000
vt 0.562500 0.875000
vt 0.531250 0.750000
vt 0.500000 0.875000
vt 0.562500 0.375000
vt 0.531250 0.500000
vt 0.562500 0.250000
vt 0.531250 0.250000
vt 0.562500 0.500000
vt 0.500000 0.500000
vt 0.531250 1.000000
vt 0.500000 0.875000
vt 0.500000 0.750000
vt 0.500000 0.000000
vt 0.531250 0.000000
vt 0.562500 0.750000
vt 0.531250 0.750000
vt 0.562500 0.250000
vt 0.562500 0.750000
vt 0.500000 0.750000
vt 0.500000 1.000000
vt 0.500000 1.000000
vt 0.500000 1.000000
vt 0.562500 0.000000
vt 0.562500 0.000000
vt 0.562500 0.000000
vt 0.500000 0.500000
vt 0.500000 0.250000
vt 0.562500 0.500000
vt 0.625000 1.000000
vt 0.500000 1.000000
vt 0.500000 0.000000
vt 0.562500 1.000000
vn -0.5982 0.7893 0.1383
vn 0.0000 0.9231 0.3846
vn -0.6510 0.7007 -0.2919
vn 0.0764 -0.9971 0.0000
vn 0.2669 0.8896 0.3707
vn 0.0000 0.9231 -0.3846
vn 0.2669 0.8896 -0.3707
vn -0.6510 0.7007 0.2919
vn 0.0000 0.9850 0.1725
vn 0.2466 0.9546 -0.1672
vn 0.0000 -1.0000 0.0000
vn -0.3516 -0.9361 0.0000
vn 0.2466 0.9546 0.1672
vn -0.5982 0.7893 -0.1383
vn 0.0000 0.9850 -0.1725
vn 0.0000 -0.7682 -0.6402
vn 0.0000 -0.7682 0.6402
vn 0.1699 0.0000 -0.9855
vn 0.1960 -0.7533 0.6278
vn -0.5784 0.0000 -0.8157
vn -0.5784 0.0000 0.8157
vn 1.0000 0.0000 0.0000
vn 0.3546 0.0000 -0.9350
vn 0.3546 0.0000 0.9350
vn 0.0000 -0.1322 0.9912
vn -1.0000 0.0000 0.0000
vn 0.0000 1.0000 0.0000
vn -0.1322 0.0000 -0.9912
vn 0.0000 -0.1961 -0.9806
vn -0.1322 0.0000 0.9912
vn 0.0000 0.0995 0.9950
vn 0.1322 0.0000 0.9912
vn 0.0000 0.1483 0.9889
vn 0.1322 0.0000 -0.9912
vn 0.0000 0.0995 -0.9950
vn 0.0000 -0.1322 -0.9912
vn 0.0000 0.0000 -1.0000
vn -0.1961 0.0000 -0.9806
vn 0.0000 0.1483 -0.9889
vn 0.1961 0.0000 -0.9806
vn 0.0000 0.0000 1.0000
vn 0.0000 -0.1961 0.9806
vn -0.1961 0.0000 0.9806
vn 0.1961 0.0000 0.9806
vn 0.2230 -0.1912 0.9559
vn 0.1524 -0.1306 -0.9797
vn -0.2172 0.1448 0.9653
vn -0.1476 0.0984 -0.9841
vn -0.2230 -0.1912 -0.9559
vn -0.1524 -0.1306 0.9797
vn 0.2172 0.1448 -0.9653
vn 0.1476 0.0984 0.9841
vn -0.8419 0.0000 0.5397
vn -0.8419 0.0000 -0.5397
vn 0.1960 -0.7533 -0.6278
vn 0.1699 0.0000 0.9855
vn -0.6688 -0.5712 -0.4760
vn -0.6688 -0.5712 0.4760
vn -0.1524 -0.1306 -0.9797
vn -0.1476 0.0984 0.9841
vn 0.1524 -0.1306 0.9797
vn 0.1476 0.0984 -0.9841
vn -0.2172 0.1448 -0.9653
vn 0.2230 -0.1912 -0.9559
vn -0.2230 -0.1912 0.9559
vn 0.2172 0.1448 0.9653
usemtl Material
s off
f 12/1/1 7/2/1 14/3/1
f 3/4/2 25/5/2 26/6/2
f 12/7/3 5/8/3 23/9/3
f 10/10/4 4/11/4 16/12/4
f 9/13/5 3/4/5 26/6/5
f 5/8/6 24/14/6 23/9/6
f 24/14/7 1/15/7 9/13/7
f 25/16/8 7/17/8 12/7/8
f 14/3/9 3/4/9 13/18/9
f 9/13/10 1/15/10 13/18/10
f 16/12/11 8/19/11 15/20/11
f 11/21/12 6/22/12 15/20/12
f 3/4/13 9/13/13 13/18/13
f 5/23/14 12/1/14 14/3/14
f 8/19/12 11/21/12 15/20/12
f 2/24/4 10/10/4 16/12/4
f 5/23/15 13/18/15 1/15/15
f 2/24/11 15/20/11 6/22/11
f 17/25/16 2/24/16 6/26/16
f 20/27/17 8/28/17 4/11/17
f 21/29/18 2/24/18 9/13/18
f 9/13/19 20/27/19 4/11/19
f 22/30/20 6/26/20 11/31/20
f 8/32/21 22/30/21 11/31/21
f 18/33/22 30/34/22 72/35/22
f 20/27/11 32/36/11 60/37/11
f 18/33/23 24/14/23 9/13/23
f 20/27/24 9/13/24 26/6/24
f 28/38/25 67/39/25 66/40/25
f 17/25/11 28/38/11 66/40/11
f 23/9/26 27/41/26 69/42/26
f 24/14/27 29/43/27 51/44/27
f 33/45/28 64/46/28 63/47/28
f 26/6/22 31/48/22 57/49/22
f 25/5/27 34/50/27 54/51/27
f 19/52/26 33/45/26 63/47/26
f 36/53/29 68/54/29 67/39/29
f 27/41/30 70/55/30 69/42/30
f 29/43/31 52/56/31 51/44/31
f 30/34/32 73/57/32 72/35/32
f 42/58/33 56/59/33 55/60/33
f 31/48/34 58/61/34 57/49/34
f 34/50/35 55/60/35 54/51/35
f 32/36/36 61/62/36 60/37/36
f 53/63/37 74/64/37 68/54/37
f 70/55/38 43/65/38 71/66/38
f 37/67/39 53/63/39 52/56/39
f 73/57/40 46/68/40 74/64/40
f 56/59/41 65/69/41 62/70/41
f 40/71/42 62/70/42 61/62/42
f 64/46/43 49/72/43 65/73/43
f 58/61/44 47/74/44 59/75/44
f 52/56/39 43/65/39 35/76/39
f 51/44/31 35/76/31 27/41/31
f 54/51/35 39/77/35 31/48/35
f 55/60/33 47/74/33 39/77/33
f 58/61/45 48/78/45 40/71/45
f 32/36/46 58/61/46 40/71/46
f 61/62/42 49/79/42 41/80/42
f 60/37/36 41/80/36 33/81/36
f 64/46/47 50/82/47 42/83/47
f 34/84/48 64/46/48 42/83/48
f 67/39/29 46/68/29 38/85/29
f 66/40/25 38/85/25 30/34/25
f 70/55/49 44/86/49 36/53/49
f 28/38/50 70/55/50 36/53/50
f 73/57/51 45/87/51 37/67/51
f 29/43/52 73/57/52 37/67/52
f 19/52/53 12/7/53 22/30/53
f 12/7/54 17/25/54 22/30/54
f 3/4/2 7/88/2 25/5/2
f 5/8/6 1/15/6 24/14/6
f 14/3/9 7/2/9 3/4/9
f 16/12/11 4/11/11 8/19/11
f 5/23/15 14/3/15 13/18/15
f 2/24/11 16/12/11 15/20/11
f 17/25/16 18/33/16 2/24/16
f 20/27/17 19/89/17 8/28/17
f 10/10/18 2/24/18 21/29/18
f 2/24/55 18/33/55 9/13/55
f 4/11/56 10/10/56 21/29/56
f 21/29/56 9/13/56 4/11/56
f 22/30/57 17/25/57 6/26/57
f 8/32/58 19/52/58 22/30/58
f 29/43/22 24/14/22 72/35/22
f 24/14/22 18/33/22 72/35/22
f 33/81/11 19/89/11 60/37/11
f 19/89/11 20/27/11 60/37/11
f 28/38/25 36/53/25 67/39/25
f 30/34/11 18/33/11 66/40/11
f 18/33/11 17/25/11 66/40/11
f 28/38/26 17/25/26 69/42/26
f 17/25/26 23/9/26 69/42/26
f 27/41/27 23/9/27 51/44/27
f 23/9/27 24/14/27 51/44/27
f 33/45/59 41/90/59 64/46/59
f 32/36/22 20/27/22 57/49/22
f 20/27/22 26/6/22 57/49/22
f 31/48/27 26/6/27 54/51/27
f 26/6/27 25/5/27 54/51/27
f 34/84/26 25/16/26 63/47/26
f 25/16/26 19/52/26 63/47/26
f 36/53/29 44/86/29 68/54/29
f 27/41/60 35/76/60 70/55/60
f 29/43/31 37/67/31 52/56/31
f 30/34/61 38/85/61 73/57/61
f 42/58/33 50/91/33 56/59/33
f 31/48/62 39/77/62 58/61/62
f 34/50/35 42/58/35 55/60/35
f 32/36/36 40/71/36 61/62/36
f 68/54/37 44/86/37 71/66/37
f 71/66/37 43/65/37 53/63/37
f 53/63/37 45/87/37 74/64/37
f 74/64/37 46/68/37 68/54/37
f 68/54/37 71/66/37 53/63/37
f 70/55/63 35/76/63 43/65/63
f 37/67/39 45/87/39 53/63/39
f 73/57/64 38/85/64 46/68/64
f 62/70/41 48/78/41 59/75/41
f 59/75/41 47/74/41 56/59/41
f 56/59/41 50/91/41 65/69/41
f 65/69/41 49/79/41 62/70/41
f 62/70/41 59/75/41 56/59/41
f 40/71/42 48/78/42 62/70/42
f 64/46/65 41/90/65 49/72/65
f 58/61/66 39/77/66 47/74/66
f 52/56/39 53/63/39 43/65/39
f 51/44/31 52/56/31 35/76/31
f 54/51/35 55/60/35 39/77/35
f 55/60/33 56/59/33 47/74/33
f 58/61/44 59/75/44 48/78/44
f 32/36/34 57/49/34 58/61/34
f 61/62/42 62/70/42 49/79/42
f 60/37/36 61/62/36 41/80/36
f 64/46/43 65/73/43 50/82/43
f 34/84/28 63/47/28 64/46/28
f 67/39/29 68/54/29 46/68/29
f 66/40/25 67/39/25 38/85/25
f 70/55/38 71/66/38 44/86/38
f 28/38/30 69/42/30 70/55/30
f 73/57/40 74/64/40 45/87/40
f 29/43/32 72/35/32 73/57/32
f 19/52/53 25/16/53 12/7/53
f 12/7/54 23/9/54 17/25/54
